<?xml version="1.0" standalone="no"?>
<!DOCTYPE svg PUBLIC "-//W3C//DTD SVG 20010904//EN"
 "http://www.w3.org/TR/2001/REC-SVG-20010904/DTD/svg10.dtd">
<svg version="1.0" xmlns="http://www.w3.org/2000/svg"
 width="700.000000pt" height="700.000000pt" viewBox="0 0 700.000000 700.000000"
 preserveAspectRatio="xMidYMid meet">
<metadata>
Created by potrace 1.11, written by Peter Selinger 2001-2013
</metadata>
<g transform="translate(0.000000,700.000000) scale(0.100000,-0.100000)"
fill="#000000" stroke="none">
<path d="M2858 6796 c-120 -35 -218 -123 -375 -334 -32 -42 -60 -79 -63 -82
-12 -12 -131 -193 -188 -286 -132 -218 -184 -347 -186 -464 -1 -67 3 -83 33
-145 31 -63 65 -101 331 -365 287 -285 379 -381 485 -505 28 -32 55 -63 61
-69 5 -6 48 -56 93 -111 46 -55 98 -118 117 -140 18 -22 48 -60 67 -84 l35
-44 -203 -406 c-112 -223 -220 -442 -240 -486 -21 -44 -53 -114 -73 -155 -20
-41 -36 -77 -37 -80 -1 -3 -14 -32 -29 -65 -275 -594 -419 -1064 -376 -1226
12 -44 153 -264 216 -337 38 -44 78 -70 102 -66 6 1 21 2 32 3 29 2 52 44 51
93 0 24 -14 99 -31 168 -18 69 -34 150 -37 181 -5 49 -2 58 21 86 50 60 185
90 391 88 123 -2 324 -14 335 -20 3 -2 37 -6 75 -10 39 -4 79 -9 90 -11 11 -3
36 -7 55 -10 19 -3 80 -14 135 -26 169 -35 305 -25 357 27 60 60 -9 165 -186
284 -131 87 -231 128 -337 138 -85 7 -93 -7 -40 -74 77 -98 76 -123 -7 -117
-79 6 -123 18 -327 86 -257 86 -337 134 -320 190 10 30 354 527 452 653 5 6
47 62 95 125 139 184 263 335 276 335 8 0 172 -246 172 -259 0 -1 38 -69 85
-150 121 -212 250 -478 330 -676 20 -52 43 -108 50 -125 7 -16 36 -97 63 -180
82 -243 154 -540 177 -731 4 -33 9 -68 11 -79 17 -94 24 -459 11 -624 -6 -82
-27 -226 -42 -301 -12 -56 -7 -129 11 -158 17 -31 67 -59 114 -66 32 -4 67 19
87 57 16 31 49 139 58 189 3 16 12 56 20 90 25 108 59 331 71 463 3 39 8 72 9
75 2 3 7 66 11 140 15 248 8 826 -11 965 -3 17 -7 62 -10 100 -3 39 -7 81 -9
95 -3 14 -7 52 -11 85 -3 33 -8 71 -10 85 -2 14 -7 43 -10 65 -7 55 -43 274
-50 305 -3 14 -12 59 -20 100 -17 87 -16 86 -44 210 -12 52 -26 111 -31 130
-5 19 -12 45 -15 57 -3 12 -8 30 -10 40 -27 130 -189 640 -278 878 -178 474
-494 1144 -706 1495 -11 19 -24 42 -28 50 -55 119 -509 827 -567 886 -70 70
-155 85 -278 50z"/>
<path d="M2538 4518 c-81 -21 -150 -139 -116 -199 34 -61 132 -123 191 -121
51 1 93 74 104 178 11 100 -75 168 -179 142z"/>
<path d="M2533 3880 c-23 -10 -49 -29 -57 -42 -21 -32 -66 -165 -66 -194 0
-51 77 -97 181 -110 123 -15 194 81 155 209 -38 126 -120 179 -213 137z"/>
</g>
</svg>
