<svg version="1.1" xmlns="http://www.w3.org/2000/svg" xmlns:xlink="http://www.w3.org/1999/xlink" x="0px" y="0px" viewBox="0 0 113.4 170.1">
	<path fill="#fff0bf" d="M113.4,56.7L113.4,56.7C113.4,56.7,113.4,56.7,113.4,56.7C113.4,25.4,88,0,56.7,0S0,25.4,0,56.7
		c0,0,0,0.1,0,0.4c0,3.3,0.3,6.6,0.9,9.8c2.7,19.8,13.5,65,55.8,103.2c0,0,0,0,0,0c42.3-38.2,53-83.4,55.8-103.2
		c0.6-3.2,0.9-6.5,0.9-9.8C113.4,56.8,113.4,56.7,113.4,56.7z"/>
	<circle fill="#100012" cx="56.7" cy="56.7" r="34.5"/>
	<circle fill="#fff0bf" cx="57.1" cy="56.7" r="25.5"/>
	<path fill="#100012" d="M53.3,67.3"/>
	<g>
		<path fill="#100012" d="M46.8,61.5L46.4,62H82c0-0.2,0.1-0.4,0.1-0.6H47C47,61.4,46.9,61.4,46.8,61.5z"/>
		<path fill="#100012" d="M81.7,63.4c0.1-0.2,0.1-0.5,0.2-0.7h-3.9H45.6l-3.9,4.2c-0.2,0.2-0.2,0.5,0.1,0.5h12.4c0.3,0,0.7,0.1,1.1,0.5
			l1.4,1.5c0.2,0.2,0.5,0.4,0.7,0.4h18.9C72.1,75.9,65,79.9,57.1,79.9c-12.8,0-23.2-10.4-23.2-23.2c0-12.8,10.4-23.2,23.2-23.2
			c4,0,7.9,1,11.4,3l2.3-4c-4.1-2.3-8.8-3.6-13.6-3.6c-15.3,0-27.8,12.4-27.8,27.7c0,15.3,12.4,27.7,27.8,27.7
			c6.3,0,12.5-2.2,17.4-6.1c4.7-3.8,8.1-9.1,9.5-14.9H81.7z"/>
	</g>
</svg>
