<?xml version="1.0" encoding="utf-8"?>
<!-- Generator: Adobe Illustrator 21.0.2, SVG Export Plug-In . SVG Version: 6.00 Build 0)  -->
<svg version="1.1" id="Слой_1" xmlns="http://www.w3.org/2000/svg" xmlns:xlink="http://www.w3.org/1999/xlink" x="0px" y="0px"
	 viewBox="0 0 238.7 242.3" style="enable-background:new 0 0 238.7 242.3;" xml:space="preserve">
<style type="text/css">
	.st0{fill:#FFF0BF;}
	.st1{fill:#100012;}
</style>
<g id="Слой_2">
	<circle class="st0" cx="121.1" cy="121.2" r="111.2"/>
</g>
<g id="Слой_7">
	<path class="st1" d="M104.4,167.4"/>
	<g>
		<path class="st1" d="M228.3,150.4c0.3-1,0.6-2.1,0.8-3.1H212H71l-17.1,18.1c-0.9,1-0.7,2,0.4,2h54.3c1.1,0.1,3.1,0.5,4.8,2.4
			l5.9,6.6c0.8,0.8,2.1,1.5,2.9,1.5H205c-18.3,27.2-49.2,44.4-83.8,44.4C65.4,222.3,20,177,20,121.2S65.4,20,121.1,20
			c17.4,0,34.6,4.5,49.6,13l9.8-17.4C162.5,5.4,142,0,121.1,0C54.3,0,0,54.4,0,121.2s54.3,121.1,121.1,121.1
			c27.6,0,54.6-9.5,76-26.8c20.5-16.6,35.2-39.6,41.5-65.1H228.3z"/>
		<path class="st1" d="M76.2,142.2l-1.9,2h155.5c0.2-0.8,0.3-1.6,0.5-2.4H77.1C76.8,141.7,76.5,141.9,76.2,142.2z"/>
	</g>
</g>
</svg>
