<svg version="1.1" xmlns="http://www.w3.org/2000/svg" xmlns:xlink="http://www.w3.org/1999/xlink" x="0px" y="0px" viewBox="0 0 283.5 21.3" preserveAspectRatio="none">
	<g>
		<rect x="283.5" y="0" class="st0" width="0" height="0.5"/>
		<path fill="none" d="M282.2,14.3h-73.1c-1,0-1.9-0.5-2.4-1.2L200,3.4c0,0,0,0,0-0.1c-0.3-0.4-1.2-1.9-2.4-1.9c-0.1,0-0.1,0-0.2,0
			h-77.3c-1.7,0.1-3.1,2.3-3.5,2.9c0,0,0,0.1-0.1,0.1L106.2,20c-0.5,0.8-1.4,1.3-2.4,1.3H0V85h283.5V14
			C283.1,14.2,282.6,14.3,282.2,14.3z"/>
		<path fill="#100012" d="M106.2,20l10.4-15.6c0,0,0-0.1,0.1-0.1c0.4-0.6,1.9-2.8,3.5-2.9h77.3c0,0,0.1,0,0.2,0c1.1,0,2.1,1.5,2.4,1.9
			c0,0,0,0,0,0.1l6.7,9.7c0.5,0.8,1.4,1.2,2.4,1.2h73.1c0.5,0,0.9-0.1,1.3-0.3V0.5h0V0H0v0v21.3h103.9
			C104.8,21.3,105.7,20.8,106.2,20z"/>
	</g>
</svg>
